<svg version="1.1" xmlns="http://www.w3.org/2000/svg" viewBox="-18.31370949898476 -18.31370949898476 36.62741899796952 36.62741899796952" fill="none" stroke="black" stroke-width="0.6%" vector-effect="non-scaling-stroke">
    <path d="M 5.58963 13.49455 A 6 6 0 0 0 14 8 A 6 6 0 0 0 13.49455 5.58963 A 5.999999999999999 5.999999999999999 0 0 0 15.55635 -4.24264 A 5.999999999999999 5.999999999999999 0 0 0 13.49455 -5.58963 A 6 6 0 0 0 8 -14 A 6 6 0 0 0 5.58963 -13.49455 A 6 6 0 0 0 -4.24264 -15.55635 A 6.000000000000001 6.000000000000001 0 0 0 -5.58963 -13.49455 A 6 6 0 0 0 -14 -8 A 6 6 0 0 0 -13.49455 -5.58963 A 6 6 0 0 0 -15.55635 4.24264 A 5.999999999999999 5.999999999999999 0 0 0 -13.49455 5.58963 A 6 6 0 0 0 -8 14 A 6 6 0 0 0 -5.58963 13.49455 A 5.999999999999999 5.999999999999999 0 0 0 4.24264 15.55635 A 5.999999999999999 5.999999999999999 0 0 0 5.58963 13.49455 Z" />
</svg>